<svg xmlns="http://www.w3.org/2000/svg" width="382.826" height="360.5" viewBox="0 0 382.826 360.5"><defs><style>.a{fill:#e6e6e6;}.b{opacity:0.1;}.c{fill:#3f3d56;}.d{fill:#f2f2f2;}.e{fill:#2f2e41;}.f{fill:#ffb8b8;}.g{fill:#fcd011;}</style></defs><g transform="translate(-0.001 0.028)"><path class="a" d="M516.326,380.018V479.6l16.657,27.146,1.268,2.065h65.724L601.3,380.018Z" transform="translate(-238.392 -175.47)"/><path class="b" d="M516.326,380.018V479.6l16.657,27.146,1.022-126.727Z" transform="translate(-238.392 -175.47)"/><path class="a" d="M148.679,375.084v99.582l-16.657,27.146-1.268,2.064H65.031L63.7,375.084Z" transform="translate(-29.412 -173.192)"/><path class="b" d="M206.4,375.084v99.582l-16.657,27.146-1.022-126.728Z" transform="translate(-87.135 -173.192)"/><path class="a" d="M404.836,354.3v5.974H47.67v-8.63l33.194-17.261H375.626Z" transform="translate(-22.009 -154.401)"/><path class="b" d="M404.836,369.107v5.975H47.67v-8.63Z" transform="translate(-22.009 -169.206)"/><path class="c" d="M123.274,422.9H107.341L100.7,418.25h29.875Z" transform="translate(-46.495 -193.122)"/><path class="c" d="M123.274,458.663H107.341l-6.639-4.647h29.875Z" transform="translate(-46.495 -209.636)"/><path class="c" d="M123.274,509.229H107.341l-6.639-4.648h29.875Z" transform="translate(-46.495 -232.982)"/><path class="c" d="M123.274,559.794H107.341l-6.639-4.647h29.875Z" transform="translate(-46.495 -256.329)"/><path class="c" d="M588.993,427.83h15.933l6.639-4.647H581.691Z" transform="translate(-268.571 -195.4)"/><path class="c" d="M588.993,463.6h15.933l6.639-4.647H581.691Z" transform="translate(-268.571 -211.914)"/><path class="c" d="M588.993,514.162h15.933l6.639-4.647H581.691Z" transform="translate(-268.571 -235.26)"/><path class="c" d="M588.993,564.727h15.933l6.639-4.647H581.691Z" transform="translate(-268.571 -258.607)"/><path class="c" d="M740.418,235.615H606.283a5.072,5.072,0,0,0-5.073,5.073v90.356a5.072,5.072,0,0,0,5.073,5.073H657.2l-1.908,12.18s-10.9,5.792-3.236,5.962,43.778,0,43.778,0,6.984,0-4.088-6.132l-1.794-12.009h50.465a5.072,5.072,0,0,0,5.073-5.073V240.688a5.072,5.072,0,0,0-5.073-5.073Z" transform="translate(-409.145 -170.787)"/><rect class="d" width="134.571" height="75.291" transform="translate(196.92 70.193)"/><circle class="d" cx="0.852" cy="0.852" r="0.852" transform="translate(263.354 66.957)"/><circle class="d" cx="3.237" cy="3.237" r="3.237" transform="translate(260.969 155.194)"/><path class="c" d="M402.846,352.692v1.7H311.2v-1.363l.126-.341,2.259-6.132h87.386Z" transform="translate(-143.684 -160.023)"/><path class="c" d="M769.308,464.982c-.167.714-.8,1.467-2.221,2.179-5.11,2.555-15.5-.681-15.5-.681s-8.006-1.363-8.006-4.94a6.384,6.384,0,0,1,.7-.417c2.149-1.137,9.272-3.941,21.9.119a5.269,5.269,0,0,1,2.4,1.573,2.513,2.513,0,0,1,.722,2.168Z" transform="translate(-474.878 -273.98)"/><path class="b" d="M769.91,464.982c-6.255,2.4-11.83,2.576-17.552-1.4a12.566,12.566,0,0,0-7.475-2.461c2.148-1.137,9.272-3.941,21.9.119a5.267,5.267,0,0,1,2.4,1.573,2.512,2.512,0,0,1,.722,2.168Z" transform="translate(-475.48 -273.98)"/><ellipse class="d" cx="2.214" cy="0.681" rx="2.214" ry="0.681" transform="translate(284.372 188.241)"/><path class="b" d="M402.846,357.952v1.7H311.2v-1.363l.126-.341Z" transform="translate(-143.684 -165.282)"/><path class="e" d="M324.374,115.146a4.6,4.6,0,0,0-2.671.6,6.966,6.966,0,0,0-1.806,2.384,28.522,28.522,0,0,1-7.77,8.777c-2.309,1.691-5.244,3.8-4.849,6.919a9.351,9.351,0,0,0,1.125,2.921c2.13,4.3,7.942,7.622,7.37,12.528,2.116-3.542-.714-5.294,1.4-8.837,1.008-1.687,2.758-3.591,4.28-2.532.509.355.844.991,1.374,1.3,1.266.743,2.612-.677,3.732-1.683,3.863-3.468,9.357-2.559,14.165-1.479,2.27.51,4.762,1.179,6.1,3.349,1.764,2.852-1.676,5.932-2.545,9.157a1.757,1.757,0,0,0,1.886,2.187c1.442-.142,3.151-.259,3.237-.892,1.815.065,4.039-.141,4.816-2.031a7.946,7.946,0,0,0,.373-2.311c.285-3.174,1.633-6.07,2.525-9.092s1.281-6.562-.226-9.241a10.693,10.693,0,0,0-1.973-2.4C346.375,116.5,335.137,115.133,324.374,115.146Z" transform="translate(-273.418 -115.159)"/><path class="f" d="M320.6,187.532s1.859,15.491-4.957,16.73,6.2,22.307,6.2,22.307l30.982,3.718L345.384,205.5s-4.957-1.859-1.859-14.252S320.6,187.532,320.6,187.532Z" transform="translate(-276.383 -147.224)"/><path class="f" d="M47.028,569.318,49.507,603.4H62.519L58.8,569.318Z" transform="translate(-21.713 -262.872)"/><path class="f" d="M224.3,448.537l1.859,28.5,14.252-6.2L234.837,447.3Z" transform="translate(-103.562 -206.534)"/><path class="e" d="M274.167,420.011s.62,35.94,4.338,47.713,3.1,12.393,2.479,14.252-1.239.62-1.239,3.718-1.239,52.05,0,56.388-3.718,11.773,0,12.393,21.068,0,21.688-3.718-4.957-4.957-2.479-7.436,6.2-53.29,6.2-53.29l8.675-35.32,16.111-18.589h34.081l10.534,40.9s-4.338,11.773-1.239,11.773S395,492.51,395,478.878s-6.2-53.909-7.436-55.148.62-5.577-1.239-7.436-23.547-14.872-31.6-17.35-19.356-5.428-19.356-5.428Z" transform="translate(-258.147 -243.691)"/><path class="e" d="M484.481,596.566s-9.295-3.1-13.632,6.2-2.479,11.773-2.479,11.773,14.252,4.957,16.73,2.479c1.078-1.078,4.5-1.453,8.027-1.532,5.368-.12,6.8-7.715,1.727-9.484q-.227-.079-.459-.137C489.438,604.621,484.481,596.566,484.481,596.566Z" transform="translate(-347.629 -337.212)"/><circle class="f" cx="18.589" cy="18.589" r="18.589" transform="translate(39.567 13.353)"/><path class="g" d="M294.263,230.923s30.363,6.2,37.8-3.718S342.6,255.09,342.6,255.09l3.718,39.657-5.577,21.688s-29.123,23.547-38.418,25.406-23.547,3.1-23.547,3.1,4.338-68.781,4.338-70.02S294.263,230.923,294.263,230.923Z" transform="translate(-260.273 -166.139)"/><path class="e" d="M292.132,212.43s-6.755-3.87-8.614-.152-19.209,13.012-21.068,13.012,3.718,51.431,1.239,57.627-14.252,51.431-7.436,55.149,1.859-3.718,8.675,5.577,40.277,9.295,42.136,5.577-14.872-31.6-11.773-57.627,8.055-61.965,3.718-66.922S292.132,212.43,292.132,212.43Z" transform="translate(-248.908 -159.268)"/><path class="e" d="M366.258,219.172l.863-2.97s25.782,8.547,27.021,14.124.62,44.615-3.718,47.713-10.534,8.055-6.2,15.491,9.295,15.491,13.013,16.111,10.534,4.957,8.675,9.295-24.166-3.718-24.166-3.718-14.872-11.154-14.252-28.5S366.258,219.172,366.258,219.172Z" transform="translate(-300.666 -161.824)"/><path class="f" d="M382.539,357.554l-14.872,27.884s-21.688,22.307-9.295,24.786,19.209-20.448,19.209-20.448l16.111-22.927Z" transform="translate(-295.259 -227.088)"/><path class="e" d="M328.788,124.185a4.219,4.219,0,0,0-2.174.422,5.067,5.067,0,0,0-1.471,1.685,21.41,21.41,0,0,1-6.325,6.2c-1.879,1.2-4.269,2.686-3.947,4.89a6.115,6.115,0,0,0,.916,2.064,16.237,16.237,0,0,1,1.973,10.12l5.168-7.511c.82-1.192,2.245-2.538,3.484-1.79.415.251.687.7,1.119.92,1.03.525,2.126-.479,3.038-1.189,3.145-2.451,7.617-1.809,11.531-1.045,1.848.361,3.877.834,4.969,2.367,1.815,2.548-.08,6.229.979,9.173a2.7,2.7,0,0,0,1.119-1.786c1.477.046,3.288-.1,3.921-1.435a4.944,4.944,0,0,0,.3-1.633c.232-2.244,1.329-4.291,2.056-6.426s1.042-4.638-.184-6.531a7.9,7.9,0,0,0-1.606-1.7C346.7,125.141,337.55,124.176,328.788,124.185Z" transform="translate(-276.927 -119.334)"/><path class="e" d="M402.3,237.836l5.773,1.532s13.436,34.407,10.337,57.954-4.957,18.589-4.957,18.589-4.957-11.154-16.111-8.675Z" transform="translate(-315.016 -171.813)"/><path class="e" d="M284.3,737.869c-1.494,2.031-1.195,4.933-2.518,7.079-1.147,1.86-3.31,2.835-4.745,4.483a12.024,12.024,0,0,0-1.22,1.755c-1.331,2.23-2.413,5.088-1.1,7.33,1.055,1.8,3.272,2.508,5.3,2.989a19.465,19.465,0,0,0,7.839.629,7.807,7.807,0,0,0,6.067-4.528,17.512,17.512,0,0,1,.649-1.831c1.409-2.774,5.828-2.8,7.27-5.561,1.009-1.929.081-4.261-.846-6.231l-2.832-6.017c-.94-2-4.75-.848-6.736-1.327C288.839,736.015,286.162,735.328,284.3,737.869Z" transform="translate(-258.125 -401.846)"/><path class="f" d="M254.6,376.857l26.025,40.277s16.111,20.448,21.068,11.154-17.35-24.786-17.35-24.786l-16.73-30.982Z" transform="translate(-249.112 -233.997)"/><path class="e" d="M262.905,239.075l-4.957-1.239s-9.914,3.1-12.393,16.111-.62,65.063,2.479,65.682,15.3-9.063,17.256-7.01-4.243-8.481-2.384-14.058S262.905,239.075,262.905,239.075Z" transform="translate(-244.406 -171.813)"/><g transform="translate(215.285 94.922)"><rect class="g" width="16.015" height="3.856" transform="translate(20.168)"/><rect class="g" width="5.635" height="3.856" transform="translate(86.009)"/><rect class="g" width="5.635" height="3.856" transform="translate(97.279)"/><rect class="g" width="38.259" height="3.856" transform="translate(41.818)"/><rect class="g" width="16.015" height="3.856" transform="translate(0 24.913)"/><rect class="g" width="5.635" height="3.856" transform="translate(65.841 24.913)"/><rect class="g" width="5.635" height="3.856" transform="translate(77.111 24.913)"/><rect class="g" width="38.259" height="3.856" transform="translate(21.651 24.913)"/><rect class="g" width="16.015" height="3.856" transform="translate(66.138 8.601)"/><rect class="g" width="16.015" height="3.856" transform="translate(87.788 8.601)"/><rect class="g" width="5.635" height="3.856" transform="translate(0 8.601)"/><rect class="g" width="5.635" height="3.856" transform="translate(11.27 8.601)"/><rect class="g" width="38.259" height="3.856" transform="translate(22.54 8.601)"/><rect class="g" width="16.015" height="3.856" transform="translate(32.921 16.905)"/><rect class="g" width="16.015" height="3.856" transform="translate(11.27 16.905)"/><rect class="g" width="5.635" height="3.856" transform="translate(0 16.905)"/><rect class="g" width="5.635" height="3.856" transform="translate(98.169 16.905)"/><rect class="g" width="38.259" height="3.856" transform="translate(54.274 16.905)"/></g></g></svg>